<?xml version="1.0" standalone="no"?><!DOCTYPE svg PUBLIC "-//W3C//DTD SVG 1.1//EN" "http://www.w3.org/Graphics/SVG/1.1/DTD/svg11.dtd"><svg t="1598153085427" class="icon" viewBox="0 0 1024 1024" version="1.1" xmlns="http://www.w3.org/2000/svg" p-id="1166" xmlns:xlink="http://www.w3.org/1999/xlink" width="200" height="200"><defs><style type="text/css"></style></defs><path d="M484.266667 426.666667l36.266666 25.6V298.666667h-96v153.6l36.266667-25.6c6.4-6.4 17.066667-6.4 23.466667 0z" fill="#1296db" p-id="1167"></path><path d="M561.066667 492.8c0 8.533333-4.266667 14.933333-10.666667 19.2-6.4 4.266667-14.933333 2.133333-21.333333-2.133333l-55.466667-42.666667-55.466667 42.666667c-4.266667 2.133333-8.533333 4.266667-12.8 4.266666-4.266667 0-6.4 0-8.533333-2.133333-6.4-4.266667-10.666667-10.666667-10.666667-19.2V298.666667h-64v426.666666h386.133334V298.666667h-142.933334v194.133333z" fill="#1296db" p-id="1168"></path><path d="M512 0C228.266667 0 0 228.266667 0 512s228.266667 512 512 512 512-228.266667 512-512S795.733333 0 512 0z m234.666667 727.466667c0 21.333333-17.066667 40.533333-38.4 40.533333H315.733333c-21.333333 0-38.4-17.066667-38.4-40.533333V296.533333c0-21.333333 17.066667-40.533333 38.4-40.533333h390.4c21.333333 0 38.4 17.066667 38.4 40.533333v430.933334z" fill="#1296db" p-id="1169"></path></svg>